<svg xmlns="http://www.w3.org/2000/svg" fill-rule="evenodd" viewBox="0 0 100 100">
    <path d="M83.654 11.693H16.346a1.5 1.5 0 0 0-1.5 1.5v73.615a1.5 1.5 0 0 0 1.5 1.5h67.308a1.5 1.5 0 0 0 1.5-1.5V13.193a1.5 1.5 0 0 0-1.5-1.5zM49.997 24.515l8.11 7.255H41.889l8.108-7.255zm32.157 60.793H17.846V14.693h30.655v7.135L36.963 32.152a1.499 1.499 0 0 0 1 2.618h24.071a1.499 1.499 0 0 0 1-2.618L51.501 21.835v-7.142h30.653v70.615z"/>
    <path d="M38.786 38.465a1.5 1.5 0 0 0-1.5 1.5v6.688a1.5 1.5 0 1 0 3 0v-6.688a1.5 1.5 0 0 0-1.5-1.5zm11.215 0a1.5 1.5 0 0 0-1.5 1.5v6.688a1.5 1.5 0 1 0 3 0v-6.688a1.5 1.5 0 0 0-1.5-1.5zm11.214 0a1.5 1.5 0 0 0-1.5 1.5v6.688a1.5 1.5 0 1 0 3 0v-6.688a1.5 1.5 0 0 0-1.5-1.5zM38.786 52.636a1.5 1.5 0 0 0-1.5 1.5v6.688a1.5 1.5 0 1 0 3 0v-6.688a1.5 1.5 0 0 0-1.5-1.5zm11.211 9.688a1.5 1.5 0 0 0 1.5-1.5v-6.688a1.5 1.5 0 1 0-3 0v6.688a1.5 1.5 0 0 0 1.5 1.5zm11.218-9.688a1.5 1.5 0 0 0-1.5 1.5v6.688a1.5 1.5 0 0 0 3 0v-6.688a1.5 1.5 0 0 0-1.5-1.5zM38.786 67.148a1.5 1.5 0 0 0-1.5 1.5v6.688a1.5 1.5 0 1 0 3 0v-6.688a1.5 1.5 0 0 0-1.5-1.5zm11.215 0a1.5 1.5 0 0 0-1.5 1.5v6.688a1.5 1.5 0 1 0 3 0v-6.688a1.5 1.5 0 0 0-1.5-1.5zm11.214 0a1.5 1.5 0 0 0-1.5 1.5v6.688a1.5 1.5 0 0 0 3 0v-6.688a1.5 1.5 0 0 0-1.5-1.5z"/>
</svg>
