<svg xmlns="http://www.w3.org/2000/svg" fill-rule="evenodd" viewBox="0 0 100 100">
    <path d="M72.631 70.586c-2.679-15.933-20.514-59.6-21.272-61.451a1.501 1.501 0 0 0-2.776 0c-.758 1.851-18.586 45.518-21.265 61.451-.858 5.089.645 10.229 4.23 14.47 4.411 5.217 11.47 8.458 18.422 8.458 6.955 0 14.017-3.243 18.43-8.462 3.587-4.242 5.089-9.379 4.231-14.466zM66.11 83.115c-3.859 4.564-10.043 7.399-16.139 7.399-6.093 0-12.274-2.834-16.131-7.396-3.007-3.556-4.272-7.83-3.563-12.035v-.001c2.196-13.058 15.353-46.534 19.695-57.373 4.344 10.839 17.505 44.313 19.702 57.374.708 4.203-.557 8.476-3.564 12.032z"/>
    <path d="M46.702 80.345c-4.331-3.073-6.509-8.024-5.682-12.923.437-2.606 1.34-6.198 2.686-10.676a1.5 1.5 0 1 0-2.873-.863c-1.382 4.598-2.314 8.313-2.771 11.042-1.02 6.042 1.626 12.122 6.904 15.867a1.5 1.5 0 1 0 1.736-2.447z"/>
</svg>
