<svg xmlns="http://www.w3.org/2000/svg" fill-rule="evenodd" viewBox="0 0 100 100">
    <path d="M41.519 48.213V31.855h6.256a1.5 1.5 0 1 0 0-3H16.748a1.5 1.5 0 1 0 0 3h6.258v16.358l-7.638 17.44-.003.007-6.049 13.813a1.5 1.5 0 0 0-.126.602c0 6.008 4.365 10.896 9.73 10.896h26.682c5.367 0 9.734-4.888 9.734-10.896 0-.207-.043-.412-.126-.602l-13.691-31.26zm-15.639.915a1.5 1.5 0 0 0 .126-.602V31.854h12.513v16.672c0 .207.043.412.126.602l6.837 15.612h-26.44l6.838-15.612zm19.722 38.841H18.92c-3.625 0-6.589-3.379-6.725-7.593l5.534-12.637h29.068l5.534 12.637c-.137 4.214-3.103 7.593-6.729 7.593zM90.074 9.03H65.516a1.5 1.5 0 1 0 0 3h2.697v68.215c0 5.913 4.299 10.724 9.583 10.724 5.283 0 9.582-4.811 9.582-10.724V12.03h2.697a1.5 1.5 0 1 0-.001-3zm-5.697 71.216c0 4.259-2.953 7.724-6.582 7.724s-6.583-3.465-6.583-7.724V57.039h6.233a1.5 1.5 0 1 0 0-3h-6.233v-8.154h6.233a1.5 1.5 0 1 0 0-3h-6.233v-8.153h6.233a1.5 1.5 0 1 0 0-3h-6.233v-8.15h6.233a1.5 1.5 0 1 0 0-3h-6.233V12.03h13.164l.001 68.216z"/>
</svg>
