<svg xmlns="http://www.w3.org/2000/svg" fill-rule="evenodd" viewBox="0 0 100 100">
    <path d="M86.549 81.743H48.396c-.02-.001-.038-.006-.058-.006-14.229 0-25.807-11.577-25.807-25.807a25.851 25.851 0 0 1 7.621-18.307 8.929 8.929 0 0 0 5.972 2.372h.104c1.87 0 3.651-.577 5.153-1.634l7.495 7.675a1.496 1.496 0 0 0 2.121.025l1.547-1.51 4.214 4.327c.277.285.657.448 1.055.453h.02c.392 0 .768-.153 1.048-.426l5.383-5.252c.284-.278.447-.658.452-1.056s-.148-.781-.427-1.066l-4.22-4.323 1.257-1.226a1.503 1.503 0 0 0 .025-2.121L37.824 9.755c-.046-.047-.098-.085-.149-.125-.04-.054-.06-.117-.109-.167-3.307-3.352-8.77-3.373-12.184-.042-3.363 3.299-3.5 8.673-.339 12.051.071.17.168.331.305.471l3.635 3.722a8.915 8.915 0 0 0-1.762 5.228 8.917 8.917 0 0 0 1.074 4.36 28.854 28.854 0 0 0-8.761 20.677c0 11.301 6.544 21.097 16.038 25.813H15.916a1.5 1.5 0 0 0-1.5 1.5v8.322a1.5 1.5 0 0 0 1.5 1.5h70.635a1.5 1.5 0 0 0 1.5-1.5v-8.322a1.504 1.504 0 0 0-1.502-1.5zm-25.455-39.19-3.234 3.156-3.169-3.253 3.23-3.153 3.173 3.25zM27.479 11.565c1.952-1.903 4.923-2.142 7.076-.715l-7.95 7.768c-1.378-2.179-1.072-5.144.874-7.053zm9.245 1.359 21.432 21.958-8.182 7.985L28.541 20.92l8.183-7.996zm2.522 23.252c-.92.543-1.97.833-3.089.819a5.965 5.965 0 0 1-4.228-1.81 5.947 5.947 0 0 1-1.711-4.257 5.959 5.959 0 0 1 .898-3.076l8.13 8.324zm45.803 53.889H17.414v-5.322h67.635v5.322z"/>
    <path d="M61.811 70.137a1.5 1.5 0 0 0 2.12.071l22.25-20.812a1.501 1.501 0 0 0-2.049-2.192l-22.25 20.812a1.502 1.502 0 0 0-.071 2.121z"/>
</svg>
